<svg width="219" height="48" viewBox="0 0 219 48" fill="none" xmlns="http://www.w3.org/2000/svg">
<path d="M0 42.2812V40.8047L1.91016 40.4766V27.0352L0 26.707V25.2188H6.12891V26.707L4.21875 27.0352V40.5117H10.2539L10.5234 37.8164H12.293V42.2812H0Z" fill="white"/>
<path d="M20.1094 42.5273C18.9375 42.5273 17.918 42.2617 17.0508 41.7305C16.1836 41.1914 15.5117 40.4453 15.0352 39.4922C14.5664 38.5391 14.332 37.4375 14.332 36.1875V35.6719C14.332 34.4688 14.5781 33.3945 15.0703 32.4492C15.5703 31.4961 16.2305 30.7461 17.0508 30.1992C17.8789 29.6445 18.7812 29.3672 19.7578 29.3672C21.4609 29.3672 22.75 29.8828 23.625 30.9141C24.5078 31.9453 24.9492 33.3203 24.9492 35.0391V36.4805H16.7227L16.6875 36.5391C16.7109 37.7578 17.0195 38.7617 17.6133 39.5508C18.207 40.332 19.0391 40.7227 20.1094 40.7227C20.8906 40.7227 21.5742 40.6133 22.1602 40.3945C22.7539 40.168 23.2656 39.8594 23.6953 39.4688L24.5977 40.9688C24.1445 41.4062 23.543 41.7773 22.793 42.082C22.0508 42.3789 21.1562 42.5273 20.1094 42.5273ZM16.793 34.6758H22.6406V34.3711C22.6406 33.4648 22.3984 32.707 21.9141 32.0977C21.4297 31.4883 20.7109 31.1836 19.7578 31.1836C18.9844 31.1836 18.3242 31.5117 17.7773 32.168C17.2305 32.8164 16.8945 33.6328 16.7695 34.6172L16.793 34.6758Z" fill="white"/>
<path d="M31.7344 42.2812L27.2227 31.2656L25.9102 31.0898V29.6016H31.2305V31.0898L29.5781 31.3242L32.3906 38.543L32.7188 39.5625H32.7891L33.1641 38.543L35.7773 31.3242L34.0781 31.0898V29.6016H39.3867V31.0898L38.0508 31.2656L33.7617 42.2812H31.7344Z" fill="white"/>
<path d="M46.0781 42.5273C44.9062 42.5273 43.8867 42.2617 43.0195 41.7305C42.1523 41.1914 41.4805 40.4453 41.0039 39.4922C40.5352 38.5391 40.3008 37.4375 40.3008 36.1875V35.6719C40.3008 34.4688 40.5469 33.3945 41.0391 32.4492C41.5391 31.4961 42.1992 30.7461 43.0195 30.1992C43.8477 29.6445 44.75 29.3672 45.7266 29.3672C47.4297 29.3672 48.7188 29.8828 49.5938 30.9141C50.4766 31.9453 50.918 33.3203 50.918 35.0391V36.4805H42.6914L42.6562 36.5391C42.6797 37.7578 42.9883 38.7617 43.582 39.5508C44.1758 40.332 45.0078 40.7227 46.0781 40.7227C46.8594 40.7227 47.543 40.6133 48.1289 40.3945C48.7227 40.168 49.2344 39.8594 49.6641 39.4688L50.5664 40.9688C50.1133 41.4062 49.5117 41.7773 48.7617 42.082C48.0195 42.3789 47.125 42.5273 46.0781 42.5273ZM42.7617 34.6758H48.6094V34.3711C48.6094 33.4648 48.3672 32.707 47.8828 32.0977C47.3984 31.4883 46.6797 31.1836 45.7266 31.1836C44.9531 31.1836 44.293 31.5117 43.7461 32.168C43.1992 32.8164 42.8633 33.6328 42.7383 34.6172L42.7617 34.6758Z" fill="white"/>
<path d="M52.6055 42.2812V40.8047L54.5156 40.4766V25.8164L52.6055 25.4883V24H56.8242V40.4766L58.7344 40.8047V42.2812H52.6055Z" fill="white"/>
<path d="M74.3438 42.5273C73.1719 42.5273 72.125 42.2969 71.2031 41.8359C70.2812 41.375 69.5547 40.7188 69.0234 39.8672C68.4922 39.0078 68.2266 37.9805 68.2266 36.7852V27.0352L66.3164 26.707V25.2188H72.4453V26.707L70.5352 27.0352V36.7852C70.5352 38.0586 70.8906 39.0273 71.6016 39.6914C72.3125 40.3477 73.2383 40.6758 74.3789 40.6758C75.5273 40.6758 76.4648 40.3516 77.1914 39.7031C77.9258 39.0547 78.293 38.082 78.293 36.7852V27.0352L76.3828 26.707V25.2188H82.5117V26.707L80.6016 27.0352V36.7852C80.6016 38.6367 80.0273 40.0586 78.8789 41.0508C77.7383 42.0352 76.2266 42.5273 74.3438 42.5273Z" fill="white"/>
<path d="M83.8477 47.1562V45.668L85.6406 45.3398V31.418L83.7305 31.0898V29.6016H87.6211L87.832 31.1484C88.6992 29.9609 89.9141 29.3672 91.4766 29.3672C92.5234 29.3672 93.418 29.6523 94.1602 30.2227C94.9023 30.7852 95.4688 31.5781 95.8594 32.6016C96.25 33.6172 96.4453 34.8086 96.4453 36.1758V36.4219C96.4453 37.6406 96.2461 38.707 95.8477 39.6211C95.457 40.5352 94.8945 41.25 94.1602 41.7656C93.4258 42.2734 92.543 42.5273 91.5117 42.5273C89.9727 42.5273 88.7852 42.0078 87.9492 40.9688V45.3398L89.9648 45.668V47.1562H83.8477ZM90.7969 40.7227C91.8906 40.7227 92.7188 40.3242 93.2812 39.5273C93.8438 38.7305 94.125 37.6953 94.125 36.4219V36.1758C94.125 34.7305 93.8438 33.5469 93.2812 32.625C92.7188 31.7031 91.8828 31.2422 90.7734 31.2422C90.1172 31.2422 89.5547 31.3906 89.0859 31.6875C88.6172 31.9844 88.2383 32.3906 87.9492 32.9062V39.082C88.2383 39.6055 88.6133 40.0117 89.0742 40.3008C89.543 40.582 90.1172 40.7227 90.7969 40.7227Z" fill="white"/>
<path d="M112.008 42.5273C110.297 42.5273 108.867 42.1523 107.719 41.4023C106.578 40.6523 105.719 39.625 105.141 38.3203C104.57 37.0156 104.285 35.5352 104.285 33.8789V33.6328C104.285 31.9609 104.586 30.4766 105.188 29.1797C105.789 27.875 106.652 26.8477 107.777 26.0977C108.902 25.3477 110.246 24.9727 111.809 24.9727C112.91 24.9727 113.918 25.1445 114.832 25.4883C115.746 25.832 116.504 26.2695 117.105 26.8008V30.4805H115.266L115.02 27.7852C114.23 27.1836 113.156 26.8828 111.797 26.8828C110.68 26.8828 109.734 27.1719 108.961 27.75C108.188 28.3203 107.602 29.1094 107.203 30.1172C106.805 31.125 106.605 32.2891 106.605 33.6094V33.8789C106.605 36.0273 107.078 37.6953 108.023 38.8828C108.969 40.0625 110.324 40.6523 112.09 40.6523C112.637 40.6523 113.172 40.5859 113.695 40.4531C114.219 40.3203 114.652 40.1484 114.996 39.9375L115.254 37.5586H117.059V41.2617C116.418 41.6602 115.652 41.9727 114.762 42.1992C113.871 42.418 112.953 42.5273 112.008 42.5273Z" fill="white"/>
<path d="M123.434 42.5273C122.113 42.5273 121.109 42.207 120.422 41.5664C119.734 40.918 119.391 40.0078 119.391 38.8359C119.391 37.6328 119.883 36.668 120.867 35.9414C121.852 35.207 123.219 34.8398 124.969 34.8398H127.23V33.5977C127.23 32.832 126.996 32.2383 126.527 31.8164C126.066 31.3945 125.414 31.1836 124.57 31.1836C124.039 31.1836 123.578 31.25 123.188 31.3828C122.797 31.5078 122.441 31.6836 122.121 31.9102L121.875 33.6797H120.094V30.7734C121.242 29.8359 122.746 29.3672 124.605 29.3672C126.145 29.3672 127.352 29.7344 128.227 30.4688C129.102 31.2031 129.539 32.2539 129.539 33.6211V39.7266C129.539 39.8906 129.539 40.0508 129.539 40.207C129.547 40.3633 129.559 40.5195 129.574 40.6758L130.805 40.8047V42.2812H127.488C127.355 41.6406 127.273 41.0586 127.242 40.5352C126.797 41.1055 126.238 41.582 125.566 41.9648C124.902 42.3398 124.191 42.5273 123.434 42.5273ZM123.773 40.5938C124.539 40.5938 125.238 40.4102 125.871 40.043C126.504 39.6758 126.957 39.2344 127.23 38.7188V36.4219H124.887C123.824 36.4219 123.027 36.6758 122.496 37.1836C121.965 37.6914 121.699 38.2578 121.699 38.8828C121.699 40.0234 122.391 40.5938 123.773 40.5938Z" fill="white"/>
<path d="M132.48 42.2812V40.8047L134.391 40.4766V25.8164L132.48 25.4883V24H136.699V40.4766L138.609 40.8047V42.2812H132.48Z" fill="white"/>
<path d="M145.875 42.5273C144.727 42.5273 143.727 42.2617 142.875 41.7305C142.023 41.1914 141.363 40.4453 140.895 39.4922C140.426 38.5391 140.191 37.4375 140.191 36.1875V35.6953C140.191 34.4922 140.418 33.4141 140.871 32.4609C141.324 31.5078 141.977 30.7539 142.828 30.1992C143.68 29.6445 144.695 29.3672 145.875 29.3672C146.898 29.3672 147.793 29.5352 148.559 29.8711C149.332 30.207 149.98 30.668 150.504 31.2539L150.562 34.3008H148.758L148.359 32.0859C148.094 31.8125 147.762 31.5938 147.363 31.4297C146.965 31.2656 146.496 31.1836 145.957 31.1836C145.27 31.1836 144.664 31.3867 144.141 31.793C143.625 32.1992 143.223 32.7422 142.934 33.4219C142.645 34.1016 142.5 34.8594 142.5 35.6953V36.1875C142.5 37.5781 142.801 38.6836 143.402 39.5039C144.004 40.3164 144.824 40.7227 145.863 40.7227C146.645 40.7227 147.293 40.5078 147.809 40.0781C148.324 39.6484 148.641 39.0586 148.758 38.3086H150.832L150.855 38.3789C150.816 39.1055 150.602 39.7852 150.211 40.418C149.82 41.0508 149.262 41.5625 148.535 41.9531C147.816 42.3359 146.93 42.5273 145.875 42.5273Z" fill="white"/>
<path d="M158.238 42.5273C156.863 42.5273 155.789 42.0859 155.016 41.2031C154.242 40.3203 153.855 38.9453 153.855 37.0781V31.418L152.402 31.0898V29.6016H156.164V37.1016C156.164 38.4531 156.363 39.3828 156.762 39.8906C157.16 40.3984 157.781 40.6523 158.625 40.6523C159.445 40.6523 160.121 40.4883 160.652 40.1602C161.191 39.8242 161.598 39.3516 161.871 38.7422V31.418L160.172 31.0898V29.6016H164.18V40.4766L165.633 40.8047V42.2812H162.105L161.953 40.4062C161.555 41.0859 161.039 41.6094 160.406 41.9766C159.781 42.3438 159.059 42.5273 158.238 42.5273Z" fill="white"/>
<path d="M167.145 42.2812V40.8047L169.055 40.4766V25.8164L167.145 25.4883V24H171.363V40.4766L173.273 40.8047V42.2812H167.145Z" fill="white"/>
<path d="M179.027 42.5273C177.707 42.5273 176.703 42.207 176.016 41.5664C175.328 40.918 174.984 40.0078 174.984 38.8359C174.984 37.6328 175.477 36.668 176.461 35.9414C177.445 35.207 178.812 34.8398 180.562 34.8398H182.824V33.5977C182.824 32.832 182.59 32.2383 182.121 31.8164C181.66 31.3945 181.008 31.1836 180.164 31.1836C179.633 31.1836 179.172 31.25 178.781 31.3828C178.391 31.5078 178.035 31.6836 177.715 31.9102L177.469 33.6797H175.688V30.7734C176.836 29.8359 178.34 29.3672 180.199 29.3672C181.738 29.3672 182.945 29.7344 183.82 30.4688C184.695 31.2031 185.133 32.2539 185.133 33.6211V39.7266C185.133 39.8906 185.133 40.0508 185.133 40.207C185.141 40.3633 185.152 40.5195 185.168 40.6758L186.398 40.8047V42.2812H183.082C182.949 41.6406 182.867 41.0586 182.836 40.5352C182.391 41.1055 181.832 41.582 181.16 41.9648C180.496 42.3398 179.785 42.5273 179.027 42.5273ZM179.367 40.5938C180.133 40.5938 180.832 40.4102 181.465 40.043C182.098 39.6758 182.551 39.2344 182.824 38.7188V36.4219H180.48C179.418 36.4219 178.621 36.6758 178.09 37.1836C177.559 37.6914 177.293 38.2578 177.293 38.8828C177.293 40.0234 177.984 40.5938 179.367 40.5938Z" fill="white"/>
<path d="M192.668 42.4805C191.73 42.4805 190.984 42.207 190.43 41.6602C189.883 41.1055 189.609 40.2227 189.609 39.0117V31.3125H187.605V29.6016H189.609V26.543H191.918V29.6016H194.672V31.3125H191.918V39.0117C191.918 39.6211 192.039 40.0703 192.281 40.3594C192.523 40.6484 192.848 40.793 193.254 40.793C193.527 40.793 193.832 40.7695 194.168 40.7227C194.504 40.668 194.766 40.6211 194.953 40.582L195.27 42.0938C194.934 42.1953 194.52 42.2852 194.027 42.3633C193.543 42.4414 193.09 42.4805 192.668 42.4805Z" fill="white"/>
<path d="M202.242 42.5273C201.07 42.5273 200.059 42.2539 199.207 41.707C198.363 41.1523 197.711 40.3906 197.25 39.4219C196.789 38.4453 196.559 37.332 196.559 36.082V35.8242C196.559 34.5742 196.789 33.4648 197.25 32.4961C197.711 31.5195 198.363 30.7539 199.207 30.1992C200.059 29.6445 201.062 29.3672 202.219 29.3672C203.391 29.3672 204.398 29.6445 205.242 30.1992C206.094 30.7539 206.75 31.5156 207.211 32.4844C207.672 33.4531 207.902 34.5664 207.902 35.8242V36.082C207.902 37.3398 207.672 38.457 207.211 39.4336C206.75 40.4023 206.098 41.1602 205.254 41.707C204.41 42.2539 203.406 42.5273 202.242 42.5273ZM202.242 40.7227C203.336 40.7227 204.168 40.2852 204.738 39.4102C205.309 38.5352 205.594 37.4258 205.594 36.082V35.8242C205.594 34.9336 205.465 34.1406 205.207 33.4453C204.957 32.7422 204.582 32.1914 204.082 31.793C203.582 31.3867 202.961 31.1836 202.219 31.1836C201.484 31.1836 200.867 31.3867 200.367 31.793C199.867 32.1914 199.492 32.7422 199.242 33.4453C198.992 34.1406 198.867 34.9336 198.867 35.8242V36.082C198.867 37.4258 199.148 38.5352 199.711 39.4102C200.281 40.2852 201.125 40.7227 202.242 40.7227Z" fill="white"/>
<path d="M209.66 42.2812V40.8047L211.57 40.4766V31.418L209.66 31.0898V29.6016H213.633L213.832 31.2188L213.855 31.4414C214.215 30.793 214.656 30.2852 215.18 29.918C215.711 29.5508 216.316 29.3672 216.996 29.3672C217.238 29.3672 217.484 29.3906 217.734 29.4375C217.992 29.4766 218.176 29.5156 218.285 29.5547L217.98 31.6992L216.375 31.6055C215.766 31.5664 215.254 31.707 214.84 32.0273C214.426 32.3398 214.105 32.7617 213.879 33.293V40.4766L215.789 40.8047V42.2812H209.66Z" fill="white"/>
<path d="M55 9.86717V9.07021L56.0369 8.89311V1.6382L55 1.4611V0.657812H57.7101L60.6936 7.64706H60.7318L63.62 0.657812H66.4127V1.4611L65.3758 1.6382V8.89311L66.4127 9.07021V9.86717H63.0856V9.07021L64.1798 8.89311V2.35927L64.148 2.35294L61.139 9.53827H60.3056L57.1948 2.36559L57.163 2.37192L57.2075 6.22391V8.89311L58.3271 9.07021V9.86717H55Z" fill="#20E4FE"/>
<path d="M69.7081 10C68.9913 10 68.4463 9.82711 68.0731 9.48134C67.6999 9.13135 67.5133 8.6401 67.5133 8.00759C67.5133 7.35821 67.7805 6.83744 68.3149 6.44529C68.8492 6.04891 69.5914 5.85073 70.5414 5.85073H71.7692V5.18027C71.7692 4.76703 71.642 4.44655 71.3875 4.21885C71.1373 3.99114 70.7832 3.87729 70.3251 3.87729C70.0367 3.87729 69.7865 3.91314 69.5745 3.98482C69.3624 4.05229 69.1694 4.14716 68.9956 4.26945L68.862 5.22454H67.895V3.65591C68.5184 3.14991 69.3349 2.8969 70.3442 2.8969C71.1797 2.8969 71.835 3.09509 72.31 3.49146C72.785 3.88783 73.0225 4.45499 73.0225 5.19292V8.4883C73.0225 8.57685 73.0225 8.66329 73.0225 8.74763C73.0267 8.83196 73.0331 8.9163 73.0416 9.00063L73.7095 9.07021V9.86717H71.9092C71.8371 9.5214 71.7926 9.20725 71.7756 8.92473C71.5339 9.23255 71.2306 9.48977 70.8659 9.69639C70.5054 9.8988 70.1195 10 69.7081 10ZM69.8926 8.95636C70.3082 8.95636 70.6878 8.85726 71.0313 8.65908C71.3748 8.46089 71.6208 8.22264 71.7692 7.94434V6.70462H70.4969C69.9201 6.70462 69.4875 6.84166 69.1991 7.11575C68.9107 7.38984 68.7665 7.69555 68.7665 8.03289C68.7665 8.64853 69.1419 8.95636 69.8926 8.95636Z" fill="#20E4FE"/>
<path d="M77.3865 10C76.8267 10 76.3454 9.86296 75.9425 9.58887C75.5438 9.31056 75.2384 8.92473 75.0264 8.43137C74.8143 7.93801 74.7083 7.36243 74.7083 6.70462V6.57179C74.7083 5.83808 74.8143 5.19502 75.0264 4.64263C75.2384 4.09024 75.5459 3.66224 75.9488 3.35863C76.3517 3.05081 76.8352 2.8969 77.3993 2.8969C77.8064 2.8969 78.1648 2.9728 78.4744 3.1246C78.7882 3.27219 79.0554 3.48724 79.2759 3.76977V0.980392L78.239 0.803289V0H80.5292V8.89311L81.5661 9.07021V9.86717H79.4413L79.3396 9.05123C78.8815 9.68374 78.2305 10 77.3865 10ZM77.7046 8.98798C78.0778 8.98798 78.3917 8.90365 78.6461 8.73498C78.9006 8.56631 79.1105 8.32806 79.2759 8.02024V4.84503C79.1148 4.5583 78.9048 4.33059 78.6461 4.16192C78.3874 3.99325 78.0778 3.90892 77.7173 3.90892C77.1194 3.90892 76.6762 4.1556 76.3878 4.64896C76.1036 5.14232 75.9615 5.78326 75.9615 6.57179V6.70462C75.9615 7.39195 76.1036 7.94434 76.3878 8.3618C76.6719 8.77925 77.1109 8.98798 77.7046 8.98798Z" fill="#20E4FE"/>
<path d="M85.135 10C84.5752 10 84.0938 9.86296 83.6909 9.58887C83.2922 9.31056 82.9869 8.92473 82.7748 8.43137C82.5628 7.93801 82.4568 7.36243 82.4568 6.70462V6.57179C82.4568 5.83808 82.5628 5.19502 82.7748 4.64263C82.9869 4.09024 83.2944 3.66224 83.6973 3.35863C84.1002 3.05081 84.5837 2.8969 85.1477 2.8969C85.5549 2.8969 85.9132 2.9728 86.2228 3.1246C86.5367 3.27219 86.8039 3.48724 87.0244 3.76977V0.980392L85.9875 0.803289V0H88.2776V8.89311L89.3146 9.07021V9.86717H87.1898L87.088 9.05123C86.63 9.68374 85.979 10 85.135 10ZM85.4531 8.98798C85.8263 8.98798 86.1401 8.90365 86.3946 8.73498C86.6491 8.56631 86.859 8.32806 87.0244 8.02024V4.84503C86.8632 4.5583 86.6533 4.33059 86.3946 4.16192C86.1359 3.99325 85.8263 3.90892 85.4658 3.90892C84.8678 3.90892 84.4246 4.1556 84.1362 4.64896C83.8521 5.14232 83.71 5.78326 83.71 6.57179V6.70462C83.71 7.39195 83.8521 7.94434 84.1362 8.3618C84.4204 8.77925 84.8593 8.98798 85.4531 8.98798Z" fill="#20E4FE"/>
<path d="M93.2779 10C92.6417 10 92.0882 9.85663 91.6175 9.56989C91.1467 9.27894 90.782 8.87624 90.5233 8.3618C90.2688 7.84735 90.1416 7.25279 90.1416 6.57812V6.29981C90.1416 5.65043 90.2752 5.07063 90.5424 4.5604C90.8138 4.04596 91.1722 3.64116 91.6175 3.34598C92.067 3.0466 92.5569 2.8969 93.087 2.8969C94.0116 2.8969 94.7114 3.17521 95.1864 3.73182C95.6656 4.28843 95.9052 5.03057 95.9052 5.95825V6.73624H91.4394L91.4203 6.76787C91.433 7.42568 91.6005 7.96753 91.9228 8.39342C92.2452 8.8151 92.6968 9.02593 93.2779 9.02593C93.702 9.02593 94.0731 8.9669 94.3912 8.84883C94.7135 8.72654 94.9913 8.55998 95.2245 8.34915L95.7144 9.15876C95.4684 9.3949 95.1418 9.59519 94.7347 9.75965C94.3318 9.91988 93.8462 10 93.2779 10ZM91.4775 5.76218H94.652V5.59772C94.652 5.10858 94.5205 4.69956 94.2576 4.37065C93.9946 4.04175 93.6044 3.87729 93.087 3.87729C92.6672 3.87729 92.3088 4.0544 92.0119 4.4086C91.715 4.75859 91.5327 5.19924 91.4648 5.73055L91.4775 5.76218Z" fill="#20E4FE"/>
<path d="M96.8849 9.86717V9.07021L97.9219 8.89311V4.0038L96.8849 3.82669V3.0234H99.0415L99.1306 4.04175C99.3596 3.67911 99.6458 3.39869 99.9894 3.20051C100.337 2.9981 100.732 2.8969 101.173 2.8969C101.915 2.8969 102.489 3.11406 102.897 3.54839C103.304 3.97849 103.507 4.64474 103.507 5.54712V8.89311L104.544 9.07021V9.86717H101.217V9.07021L102.254 8.89311V5.57242C102.254 4.96943 102.133 4.54143 101.892 4.28843C101.654 4.03542 101.289 3.90892 100.797 3.90892C100.437 3.90892 100.117 3.99536 99.8367 4.16825C99.561 4.34113 99.3405 4.57727 99.1751 4.87666V8.89311L100.212 9.07021V9.86717H96.8849Z" fill="#20E4FE"/>
<path d="M105.562 9.86717V9.07021L106.599 8.89311V1.6382L105.562 1.4611V0.657812H108.272L111.256 7.64706H111.294L114.182 0.657812H116.975V1.4611L115.938 1.6382V8.89311L116.975 9.07021V9.86717H113.648V9.07021L114.742 8.89311V2.35927L114.71 2.35294L111.701 9.53827H110.868L107.757 2.36559L107.725 2.37192L107.77 6.22391V8.89311L108.889 9.07021V9.86717H105.562Z" fill="#20E4FE"/>
<path d="M121.154 10C120.518 10 119.969 9.85241 119.507 9.55724C119.049 9.25785 118.695 8.84672 118.444 8.32385C118.194 7.79675 118.069 7.19587 118.069 6.52119V6.38204C118.069 5.70736 118.194 5.10858 118.444 4.58571C118.695 4.05861 119.049 3.64537 119.507 3.34598C119.969 3.0466 120.514 2.8969 121.142 2.8969C121.778 2.8969 122.325 3.0466 122.783 3.34598C123.245 3.64537 123.602 4.0565 123.852 4.57938C124.102 5.10226 124.227 5.70314 124.227 6.38204V6.52119C124.227 7.20008 124.102 7.80308 123.852 8.33017C123.602 8.85305 123.247 9.26207 122.789 9.55724C122.331 9.85241 121.786 10 121.154 10ZM121.154 9.02593C121.748 9.02593 122.2 8.7898 122.51 8.31752C122.819 7.84525 122.974 7.24647 122.974 6.52119V6.38204C122.974 5.90133 122.904 5.47333 122.764 5.09804C122.628 4.71853 122.425 4.42125 122.153 4.2062C121.882 3.98693 121.545 3.87729 121.142 3.87729C120.743 3.87729 120.408 3.98693 120.137 4.2062C119.865 4.42125 119.662 4.71853 119.526 5.09804C119.39 5.47333 119.322 5.90133 119.322 6.38204V6.52119C119.322 7.24647 119.475 7.84525 119.78 8.31752C120.09 8.7898 120.548 9.02593 121.154 9.02593Z" fill="#20E4FE"/>
<path d="M128.852 10C127.966 10 127.3 9.66266 126.854 8.98798L126.74 9.86717H125.659V0.980392L124.622 0.803289V0H126.912V3.83302C127.128 3.52941 127.395 3.29749 127.713 3.13725C128.036 2.97702 128.411 2.8969 128.839 2.8969C129.408 2.8969 129.891 3.05081 130.29 3.35863C130.693 3.66224 131 4.09024 131.212 4.64263C131.429 5.19502 131.537 5.83808 131.537 6.57179V6.70462C131.537 7.36243 131.429 7.93801 131.212 8.43137C131 8.92473 130.693 9.31056 130.29 9.58887C129.891 9.86296 129.412 10 128.852 10ZM128.534 8.98798C129.123 8.98798 129.56 8.77925 129.844 8.3618C130.133 7.94434 130.277 7.39195 130.277 6.70462V6.57179C130.277 5.78326 130.133 5.14232 129.844 4.64896C129.556 4.1556 129.115 3.90892 128.521 3.90892C128.135 3.90892 127.809 4.00169 127.542 4.18722C127.279 4.37276 127.069 4.62155 126.912 4.93359V7.95699C127.069 8.27324 127.281 8.52414 127.548 8.70968C127.819 8.89521 128.148 8.98798 128.534 8.98798Z" fill="#20E4FE"/>
<path d="M132.44 9.86717V9.07021L133.477 8.89311V4.0038L132.44 3.82669V3.0234H134.73V8.89311L135.767 9.07021V9.86717H132.44ZM133.413 1.3346V0H134.73V1.3346H133.413Z" fill="#20E4FE"/>
<path d="M136.569 9.86717V9.07021L137.606 8.89311V0.980392L136.569 0.803289V0H138.859V8.89311L139.896 9.07021V9.86717H136.569Z" fill="#20E4FE"/>
<path d="M143.802 10C143.166 10 142.612 9.85663 142.141 9.56989C141.671 9.27894 141.306 8.87624 141.047 8.3618C140.793 7.84735 140.666 7.25279 140.666 6.57812V6.29981C140.666 5.65043 140.799 5.07063 141.066 4.5604C141.338 4.04596 141.696 3.64116 142.141 3.34598C142.591 3.0466 143.081 2.8969 143.611 2.8969C144.536 2.8969 145.235 3.17521 145.71 3.73182C146.19 4.28843 146.429 5.03057 146.429 5.95825V6.73624H141.963L141.944 6.76787C141.957 7.42568 142.125 7.96753 142.447 8.39342C142.769 8.8151 143.221 9.02593 143.802 9.02593C144.226 9.02593 144.597 8.9669 144.915 8.84883C145.237 8.72654 145.515 8.55998 145.749 8.34915L146.238 9.15876C145.992 9.3949 145.666 9.59519 145.259 9.75965C144.856 9.91988 144.37 10 143.802 10ZM142.002 5.76218H145.176V5.59772C145.176 5.10858 145.044 4.69956 144.782 4.37065C144.519 4.04175 144.128 3.87729 143.611 3.87729C143.191 3.87729 142.833 4.0544 142.536 4.4086C142.239 4.75859 142.057 5.19924 141.989 5.73055L142.002 5.76218Z" fill="#20E4FE"/>
<path d="M150.8 9.86717V9.01328L153.834 5.66097C154.195 5.26038 154.477 4.91883 154.68 4.63631C154.884 4.34957 155.026 4.09024 155.106 3.85832C155.187 3.6264 155.227 3.38604 155.227 3.13725C155.227 2.67763 155.087 2.2918 154.807 1.97976C154.528 1.6635 154.127 1.50538 153.605 1.50538C153.062 1.50538 152.638 1.66772 152.333 1.99241C152.032 2.3171 151.881 2.77672 151.881 3.37128H150.679L150.666 3.33333C150.653 2.80202 150.766 2.32553 151.003 1.90386C151.241 1.47797 151.584 1.14274 152.034 0.898166C152.488 0.649378 153.026 0.524984 153.65 0.524984C154.235 0.524984 154.737 0.636728 155.157 0.860215C155.581 1.07949 155.908 1.38098 156.137 1.76471C156.366 2.14843 156.481 2.58908 156.481 3.08665C156.481 3.59266 156.33 4.09656 156.029 4.59836C155.732 5.10015 155.312 5.642 154.769 6.22391L152.333 8.86148L152.346 8.89311H155.634L155.736 7.83681H156.799V9.86717H150.8Z" fill="#20E4FE"/>
<path d="M158.001 9.86717V9.01328L161.035 5.66097C161.396 5.26038 161.678 4.91883 161.882 4.63631C162.085 4.34957 162.227 4.09024 162.308 3.85832C162.388 3.6264 162.429 3.38604 162.429 3.13725C162.429 2.67763 162.289 2.2918 162.009 1.97976C161.729 1.6635 161.328 1.50538 160.806 1.50538C160.264 1.50538 159.839 1.66772 159.534 1.99241C159.233 2.3171 159.082 2.77672 159.082 3.37128H157.88L157.867 3.33333C157.855 2.80202 157.967 2.32553 158.205 1.90386C158.442 1.47797 158.786 1.14274 159.235 0.898166C159.689 0.649378 160.228 0.524984 160.851 0.524984C161.436 0.524984 161.939 0.636728 162.359 0.860215C162.783 1.07949 163.109 1.38098 163.338 1.76471C163.567 2.14843 163.682 2.58908 163.682 3.08665C163.682 3.59266 163.531 4.09656 163.23 4.59836C162.933 5.10015 162.513 5.642 161.971 6.22391L159.534 8.86148L159.547 8.89311H162.836L162.938 7.83681H164V9.86717H158.001Z" fill="#20E4FE"/>
</svg>
