<svg width="281" height="45" viewBox="0 0 281 45" fill="none" xmlns="http://www.w3.org/2000/svg">
<path d="M0.65625 44V41.9492L2.47266 41.5977V29.3516L0.65625 29V26.9375H7.72266V29L5.89453 29.3516V41.375H10.7109L10.875 39.2305H13.4883V44H0.65625Z" fill="white"/>
<path d="M25.7344 36.5H19.957V41.375H25.4648L25.6172 39.3359H28.2188V44H14.7188V41.9492L16.5352 41.5977V29.3516L14.7188 29V26.9375H28.1953V31.6133H25.5703L25.418 29.5742H19.957V33.8633H25.7344V36.5Z" fill="white"/>
<path d="M36.0234 29L34.7227 29.2344L37.7461 39.4648L37.957 40.4023H38.0273L38.2266 39.4883L41.2617 29.2344L39.9727 29V26.9375H46.207V29L44.7773 29.1875L39.75 44H36.2344L31.1953 29.1875L29.7891 29V26.9375H36.0234V29Z" fill="white"/>
<path d="M58.2656 36.5H52.4883V41.375H57.9961L58.1484 39.3359H60.75V44H47.25V41.9492L49.0664 41.5977V29.3516L47.25 29V26.9375H60.7266V31.6133H58.1016L57.9492 29.5742H52.4883V33.8633H58.2656V36.5Z" fill="white"/>
<path d="M62.5781 44V41.9492L64.3945 41.5977V29.3516L62.5781 29V26.9375H69.6445V29L67.8164 29.3516V41.375H72.6328L72.7969 39.2305H75.4102V44H62.5781Z" fill="white"/>
<path d="M89.3906 26.9375V29L87.5625 29.3516V38.2578C87.5625 39.3828 87.8633 40.2266 88.4648 40.7891C89.0742 41.3438 89.9062 41.6211 90.9609 41.6211C92.0312 41.6211 92.8711 41.3438 93.4805 40.7891C94.0898 40.2344 94.3945 39.3906 94.3945 38.2578V29.3516L92.5781 29V26.9375H99.6445V29L97.8164 29.3516V38.2578C97.8164 40.1719 97.1836 41.6484 95.918 42.6875C94.6602 43.7266 93.0078 44.2461 90.9609 44.2461C88.9219 44.2461 87.2734 43.7266 86.0156 42.6875C84.7656 41.6484 84.1406 40.1719 84.1406 38.2578V29.3516L82.3242 29V26.9375H89.3906Z" fill="white"/>
<path d="M108.785 26.9375C110.738 26.9375 112.277 27.4414 113.402 28.4492C114.535 29.4492 115.102 30.7617 115.102 32.3867C115.102 34.0195 114.535 35.332 113.402 36.3242C112.277 37.3164 110.738 37.8125 108.785 37.8125H105.902V41.5977L107.73 41.9492V44H100.664V41.9492L102.48 41.5977V29.3516L100.664 29V26.9375H108.785ZM105.902 35.1758H108.785C109.738 35.1758 110.457 34.918 110.941 34.4023C111.434 33.8789 111.68 33.2148 111.68 32.4102C111.68 31.5898 111.434 30.9141 110.941 30.3828C110.457 29.8438 109.738 29.5742 108.785 29.5742H105.902V35.1758Z" fill="white"/>
<path d="M136.066 32.6914H133.523L133.172 30.418C132.836 30.082 132.41 29.8164 131.895 29.6211C131.387 29.4258 130.785 29.3281 130.09 29.3281C128.605 29.3281 127.461 29.8672 126.656 30.9453C125.859 32.0234 125.461 33.4297 125.461 35.1641V35.7617C125.461 37.4961 125.859 38.9062 126.656 39.9922C127.453 41.0781 128.578 41.6211 130.031 41.6211C130.703 41.6211 131.316 41.5234 131.871 41.3281C132.434 41.1328 132.867 40.8672 133.172 40.5312L133.523 38.2578H136.066V41.6328C135.379 42.4297 134.5 43.0664 133.43 43.543C132.367 44.0117 131.176 44.2461 129.855 44.2461C127.566 44.2461 125.691 43.4531 124.23 41.8672C122.77 40.2812 122.039 38.2461 122.039 35.7617V35.1875C122.039 32.7109 122.766 30.6758 124.219 29.082C125.672 27.4883 127.551 26.6914 129.855 26.6914C131.176 26.6914 132.367 26.9336 133.43 27.418C134.492 27.8945 135.371 28.5273 136.066 29.3164V32.6914Z" fill="white"/>
<path d="M137.473 41.9492L138.691 41.7734L143.883 26.9375H147.387L152.543 41.7734L153.762 41.9492V44H147.949V41.9492L149.133 41.7383L148.383 39.3945H142.852L142.102 41.7383L143.285 41.9492V44H137.473V41.9492ZM143.66 36.875H147.574L145.652 30.8633H145.582L143.66 36.875Z" fill="white"/>
<path d="M154.898 44V41.9492L156.715 41.5977V29.3516L154.898 29V26.9375H161.965V29L160.137 29.3516V41.375H164.953L165.117 39.2305H167.73V44H154.898Z" fill="white"/>
<path d="M182.637 32.6914H180.094L179.742 30.418C179.406 30.082 178.98 29.8164 178.465 29.6211C177.957 29.4258 177.355 29.3281 176.66 29.3281C175.176 29.3281 174.031 29.8672 173.227 30.9453C172.43 32.0234 172.031 33.4297 172.031 35.1641V35.7617C172.031 37.4961 172.43 38.9062 173.227 39.9922C174.023 41.0781 175.148 41.6211 176.602 41.6211C177.273 41.6211 177.887 41.5234 178.441 41.3281C179.004 41.1328 179.438 40.8672 179.742 40.5312L180.094 38.2578H182.637V41.6328C181.949 42.4297 181.07 43.0664 180 43.543C178.938 44.0117 177.746 44.2461 176.426 44.2461C174.137 44.2461 172.262 43.4531 170.801 41.8672C169.34 40.2812 168.609 38.2461 168.609 35.7617V35.1875C168.609 32.7109 169.336 30.6758 170.789 29.082C172.242 27.4883 174.121 26.6914 176.426 26.6914C177.746 26.6914 178.938 26.9336 180 27.418C181.062 27.8945 181.941 28.5273 182.637 29.3164V32.6914Z" fill="white"/>
<path d="M191.086 26.9375V29L189.258 29.3516V38.2578C189.258 39.3828 189.559 40.2266 190.16 40.7891C190.77 41.3438 191.602 41.6211 192.656 41.6211C193.727 41.6211 194.566 41.3438 195.176 40.7891C195.785 40.2344 196.09 39.3906 196.09 38.2578V29.3516L194.273 29V26.9375H201.34V29L199.512 29.3516V38.2578C199.512 40.1719 198.879 41.6484 197.613 42.6875C196.355 43.7266 194.703 44.2461 192.656 44.2461C190.617 44.2461 188.969 43.7266 187.711 42.6875C186.461 41.6484 185.836 40.1719 185.836 38.2578V29.3516L184.02 29V26.9375H191.086Z" fill="white"/>
<path d="M202.359 44V41.9492L204.176 41.5977V29.3516L202.359 29V26.9375H209.426V29L207.598 29.3516V41.375H212.414L212.578 39.2305H215.191V44H202.359Z" fill="white"/>
<path d="M216.246 41.9492L217.465 41.7734L222.656 26.9375H226.16L231.316 41.7734L232.535 41.9492V44H226.723V41.9492L227.906 41.7383L227.156 39.3945H221.625L220.875 41.7383L222.059 41.9492V44H216.246V41.9492ZM222.434 36.875H226.348L224.426 30.8633H224.355L222.434 36.875Z" fill="white"/>
<path d="M246.938 26.9375V31.4844H244.312L244.172 29.5742H241.031V41.5977L242.859 41.9492V44H235.781V41.9492L237.609 41.5977V29.5742H234.48L234.34 31.4844H231.727V26.9375H246.938Z" fill="white"/>
<path d="M263.332 35.5977C263.332 38.0977 262.617 40.1641 261.188 41.7969C259.758 43.4297 257.887 44.2461 255.574 44.2461C253.27 44.2461 251.406 43.4297 249.984 41.7969C248.57 40.1641 247.863 38.0977 247.863 35.5977V35.3398C247.863 32.8555 248.57 30.793 249.984 29.1523C251.398 27.5117 253.258 26.6914 255.562 26.6914C257.875 26.6914 259.746 27.5117 261.176 29.1523C262.613 30.793 263.332 32.8555 263.332 35.3398V35.5977ZM259.922 35.3164C259.922 33.5508 259.555 32.1172 258.82 31.0156C258.086 29.9141 257 29.3633 255.562 29.3633C254.125 29.3633 253.051 29.9102 252.34 31.0039C251.637 32.0977 251.285 33.5352 251.285 35.3164V35.5977C251.285 37.3945 251.641 38.8438 252.352 39.9453C253.07 41.0391 254.145 41.5859 255.574 41.5859C257.02 41.5859 258.105 41.0391 258.832 39.9453C259.559 38.8438 259.922 37.3945 259.922 35.5977V35.3164Z" fill="white"/>
<path d="M272.367 26.9375C274.305 26.9375 275.824 27.3828 276.926 28.2734C278.027 29.1562 278.578 30.3789 278.578 31.9414C278.578 32.8008 278.348 33.5469 277.887 34.1797C277.426 34.8125 276.75 35.3242 275.859 35.7148C276.867 36.0117 277.59 36.5078 278.027 37.2031C278.473 37.8906 278.695 38.7461 278.695 39.7695V40.6367C278.695 41.0117 278.77 41.3047 278.918 41.5156C279.066 41.7188 279.312 41.8398 279.656 41.8789L280.078 41.9375V44H278.309C277.191 44 276.406 43.6992 275.953 43.0977C275.5 42.4961 275.273 41.7188 275.273 40.7656V39.793C275.273 38.9648 275.051 38.3164 274.605 37.8477C274.168 37.3711 273.547 37.1211 272.742 37.0977H269.941V41.5977L271.77 41.9492V44H264.703V41.9492L266.52 41.5977V29.3516L264.703 29V26.9375H272.367ZM269.941 34.4609H272.309C273.262 34.4609 273.977 34.2578 274.453 33.8516C274.93 33.4453 275.168 32.8594 275.168 32.0938C275.168 31.3281 274.93 30.7188 274.453 30.2656C273.984 29.8047 273.289 29.5742 272.367 29.5742H269.941V34.4609Z" fill="white"/>
<path d="M11.4141 3.58594L11.3672 3.57812L8.32031 12H6.78906L3.75781 3.60938L3.71094 3.61719L3.92969 8.60938V10.3984L5.14844 10.6328V12H0.4375V10.6328L1.64844 10.3984V2.23438L0.4375 2V0.625H4.625L7.52344 9.00781H7.57031L10.4922 0.625H14.6953V2L13.4766 2.23438V10.3984L14.6953 10.6328V12H9.98438V10.6328L11.1953 10.3984V8.60938L11.4141 3.58594Z" fill="white"/>
<path d="M26.4922 3.58594L26.4453 3.57812L23.3984 12H21.8672L18.8359 3.60938L18.7891 3.61719L19.0078 8.60938V10.3984L20.2266 10.6328V12H15.5156V10.6328L16.7266 10.3984V2.23438L15.5156 2V0.625H19.7031L22.6016 9.00781H22.6484L25.5703 0.625H29.7734V2L28.5547 2.23438V10.3984L29.7734 10.6328V12H25.0625V10.6328L26.2734 10.3984V8.60938L26.4922 3.58594Z" fill="white"/>
<path d="M30.7266 12V10.5078L34.4062 6.5625C34.9375 5.95312 35.3151 5.4401 35.5391 5.02344C35.763 4.60156 35.875 4.21094 35.875 3.85156C35.875 3.3724 35.7448 2.98177 35.4844 2.67969C35.2292 2.3724 34.8646 2.21875 34.3906 2.21875C33.8646 2.21875 33.4635 2.39844 33.1875 2.75781C32.9167 3.11198 32.7812 3.58594 32.7812 4.17969H30.5625L30.5469 4.13281C30.5208 3.10677 30.8568 2.23958 31.5547 1.53125C32.2578 0.817708 33.2031 0.460938 34.3906 0.460938C35.5625 0.460938 36.4844 0.765625 37.1562 1.375C37.8281 1.98438 38.1641 2.79688 38.1641 3.8125C38.1641 4.5 37.974 5.13542 37.5938 5.71875C37.2188 6.30208 36.5938 7.0625 35.7188 8L33.6953 10.2109L33.7109 10.25H36.6641L36.7578 9.125H38.4922V12H30.7266Z" fill="white"/>
<path d="M39.5703 12V10.5078L43.25 6.5625C43.7812 5.95312 44.1589 5.4401 44.3828 5.02344C44.6068 4.60156 44.7188 4.21094 44.7188 3.85156C44.7188 3.3724 44.5885 2.98177 44.3281 2.67969C44.0729 2.3724 43.7083 2.21875 43.2344 2.21875C42.7083 2.21875 42.3073 2.39844 42.0312 2.75781C41.7604 3.11198 41.625 3.58594 41.625 4.17969H39.4062L39.3906 4.13281C39.3646 3.10677 39.7005 2.23958 40.3984 1.53125C41.1016 0.817708 42.0469 0.460938 43.2344 0.460938C44.4062 0.460938 45.3281 0.765625 46 1.375C46.6719 1.98438 47.0078 2.79688 47.0078 3.8125C47.0078 4.5 46.8177 5.13542 46.4375 5.71875C46.0625 6.30208 45.4375 7.0625 44.5625 8L42.5391 10.2109L42.5547 10.25H45.5078L45.6016 9.125H47.3359V12H39.5703Z" fill="white"/>
</svg>
