<svg width="219" height="47" viewBox="0 0 219 47" fill="none" xmlns="http://www.w3.org/2000/svg">
<g clip-path="url(#clip0_17:50)">
<path d="M0 44.2812V42.8047L1.91016 42.4766V29.0352L0 28.707V27.2188H6.12891V28.707L4.21875 29.0352V42.5117H10.2539L10.5234 39.8164H12.293V44.2812H0Z" fill="white"/>
<path d="M20.1094 44.5273C18.9375 44.5273 17.918 44.2617 17.0508 43.7305C16.1836 43.1914 15.5117 42.4453 15.0352 41.4922C14.5664 40.5391 14.332 39.4375 14.332 38.1875V37.6719C14.332 36.4688 14.5781 35.3945 15.0703 34.4492C15.5703 33.4961 16.2305 32.7461 17.0508 32.1992C17.8789 31.6445 18.7812 31.3672 19.7578 31.3672C21.4609 31.3672 22.75 31.8828 23.625 32.9141C24.5078 33.9453 24.9492 35.3203 24.9492 37.0391V38.4805H16.7227L16.6875 38.5391C16.7109 39.7578 17.0195 40.7617 17.6133 41.5508C18.207 42.332 19.0391 42.7227 20.1094 42.7227C20.8906 42.7227 21.5742 42.6133 22.1602 42.3945C22.7539 42.168 23.2656 41.8594 23.6953 41.4688L24.5977 42.9688C24.1445 43.4062 23.543 43.7773 22.793 44.082C22.0508 44.3789 21.1562 44.5273 20.1094 44.5273ZM16.793 36.6758H22.6406V36.3711C22.6406 35.4648 22.3984 34.707 21.9141 34.0977C21.4297 33.4883 20.7109 33.1836 19.7578 33.1836C18.9844 33.1836 18.3242 33.5117 17.7773 34.168C17.2305 34.8164 16.8945 35.6328 16.7695 36.6172L16.793 36.6758Z" fill="white"/>
<path d="M31.7344 44.2812L27.2227 33.2656L25.9102 33.0898V31.6016H31.2305V33.0898L29.5781 33.3242L32.3906 40.543L32.7188 41.5625H32.7891L33.1641 40.543L35.7773 33.3242L34.0781 33.0898V31.6016H39.3867V33.0898L38.0508 33.2656L33.7617 44.2812H31.7344Z" fill="white"/>
<path d="M46.0781 44.5273C44.9062 44.5273 43.8867 44.2617 43.0195 43.7305C42.1523 43.1914 41.4805 42.4453 41.0039 41.4922C40.5352 40.5391 40.3008 39.4375 40.3008 38.1875V37.6719C40.3008 36.4688 40.5469 35.3945 41.0391 34.4492C41.5391 33.4961 42.1992 32.7461 43.0195 32.1992C43.8477 31.6445 44.75 31.3672 45.7266 31.3672C47.4297 31.3672 48.7188 31.8828 49.5938 32.9141C50.4766 33.9453 50.918 35.3203 50.918 37.0391V38.4805H42.6914L42.6562 38.5391C42.6797 39.7578 42.9883 40.7617 43.582 41.5508C44.1758 42.332 45.0078 42.7227 46.0781 42.7227C46.8594 42.7227 47.543 42.6133 48.1289 42.3945C48.7227 42.168 49.2344 41.8594 49.6641 41.4688L50.5664 42.9688C50.1133 43.4062 49.5117 43.7773 48.7617 44.082C48.0195 44.3789 47.125 44.5273 46.0781 44.5273ZM42.7617 36.6758H48.6094V36.3711C48.6094 35.4648 48.3672 34.707 47.8828 34.0977C47.3984 33.4883 46.6797 33.1836 45.7266 33.1836C44.9531 33.1836 44.293 33.5117 43.7461 34.168C43.1992 34.8164 42.8633 35.6328 42.7383 36.6172L42.7617 36.6758Z" fill="white"/>
<path d="M52.6055 44.2812V42.8047L54.5156 42.4766V27.8164L52.6055 27.4883V26H56.8242V42.4766L58.7344 42.8047V44.2812H52.6055Z" fill="white"/>
<path d="M74.3438 44.5273C73.1719 44.5273 72.125 44.2969 71.2031 43.8359C70.2812 43.375 69.5547 42.7188 69.0234 41.8672C68.4922 41.0078 68.2266 39.9805 68.2266 38.7852V29.0352L66.3164 28.707V27.2188H72.4453V28.707L70.5352 29.0352V38.7852C70.5352 40.0586 70.8906 41.0273 71.6016 41.6914C72.3125 42.3477 73.2383 42.6758 74.3789 42.6758C75.5273 42.6758 76.4648 42.3516 77.1914 41.7031C77.9258 41.0547 78.293 40.082 78.293 38.7852V29.0352L76.3828 28.707V27.2188H82.5117V28.707L80.6016 29.0352V38.7852C80.6016 40.6367 80.0273 42.0586 78.8789 43.0508C77.7383 44.0352 76.2266 44.5273 74.3438 44.5273Z" fill="white"/>
<path d="M83.8477 49.1562V47.668L85.6406 47.3398V33.418L83.7305 33.0898V31.6016H87.6211L87.832 33.1484C88.6992 31.9609 89.9141 31.3672 91.4766 31.3672C92.5234 31.3672 93.418 31.6523 94.1602 32.2227C94.9023 32.7852 95.4688 33.5781 95.8594 34.6016C96.25 35.6172 96.4453 36.8086 96.4453 38.1758V38.4219C96.4453 39.6406 96.2461 40.707 95.8477 41.6211C95.457 42.5352 94.8945 43.25 94.1602 43.7656C93.4258 44.2734 92.543 44.5273 91.5117 44.5273C89.9727 44.5273 88.7852 44.0078 87.9492 42.9688V47.3398L89.9648 47.668V49.1562H83.8477ZM90.7969 42.7227C91.8906 42.7227 92.7188 42.3242 93.2812 41.5273C93.8438 40.7305 94.125 39.6953 94.125 38.4219V38.1758C94.125 36.7305 93.8438 35.5469 93.2812 34.625C92.7188 33.7031 91.8828 33.2422 90.7734 33.2422C90.1172 33.2422 89.5547 33.3906 89.0859 33.6875C88.6172 33.9844 88.2383 34.3906 87.9492 34.9062V41.082C88.2383 41.6055 88.6133 42.0117 89.0742 42.3008C89.543 42.582 90.1172 42.7227 90.7969 42.7227Z" fill="white"/>
<path d="M112.008 44.5273C110.297 44.5273 108.867 44.1523 107.719 43.4023C106.578 42.6523 105.719 41.625 105.141 40.3203C104.57 39.0156 104.285 37.5352 104.285 35.8789V35.6328C104.285 33.9609 104.586 32.4766 105.188 31.1797C105.789 29.875 106.652 28.8477 107.777 28.0977C108.902 27.3477 110.246 26.9727 111.809 26.9727C112.91 26.9727 113.918 27.1445 114.832 27.4883C115.746 27.832 116.504 28.2695 117.105 28.8008V32.4805H115.266L115.02 29.7852C114.23 29.1836 113.156 28.8828 111.797 28.8828C110.68 28.8828 109.734 29.1719 108.961 29.75C108.188 30.3203 107.602 31.1094 107.203 32.1172C106.805 33.125 106.605 34.2891 106.605 35.6094V35.8789C106.605 38.0273 107.078 39.6953 108.023 40.8828C108.969 42.0625 110.324 42.6523 112.09 42.6523C112.637 42.6523 113.172 42.5859 113.695 42.4531C114.219 42.3203 114.652 42.1484 114.996 41.9375L115.254 39.5586H117.059V43.2617C116.418 43.6602 115.652 43.9727 114.762 44.1992C113.871 44.418 112.953 44.5273 112.008 44.5273Z" fill="white"/>
<path d="M123.434 44.5273C122.113 44.5273 121.109 44.207 120.422 43.5664C119.734 42.918 119.391 42.0078 119.391 40.8359C119.391 39.6328 119.883 38.668 120.867 37.9414C121.852 37.207 123.219 36.8398 124.969 36.8398H127.23V35.5977C127.23 34.832 126.996 34.2383 126.527 33.8164C126.066 33.3945 125.414 33.1836 124.57 33.1836C124.039 33.1836 123.578 33.25 123.188 33.3828C122.797 33.5078 122.441 33.6836 122.121 33.9102L121.875 35.6797H120.094V32.7734C121.242 31.8359 122.746 31.3672 124.605 31.3672C126.145 31.3672 127.352 31.7344 128.227 32.4688C129.102 33.2031 129.539 34.2539 129.539 35.6211V41.7266C129.539 41.8906 129.539 42.0508 129.539 42.207C129.547 42.3633 129.559 42.5195 129.574 42.6758L130.805 42.8047V44.2812H127.488C127.355 43.6406 127.273 43.0586 127.242 42.5352C126.797 43.1055 126.238 43.582 125.566 43.9648C124.902 44.3398 124.191 44.5273 123.434 44.5273ZM123.773 42.5938C124.539 42.5938 125.238 42.4102 125.871 42.043C126.504 41.6758 126.957 41.2344 127.23 40.7188V38.4219H124.887C123.824 38.4219 123.027 38.6758 122.496 39.1836C121.965 39.6914 121.699 40.2578 121.699 40.8828C121.699 42.0234 122.391 42.5938 123.773 42.5938Z" fill="white"/>
<path d="M132.48 44.2812V42.8047L134.391 42.4766V27.8164L132.48 27.4883V26H136.699V42.4766L138.609 42.8047V44.2812H132.48Z" fill="white"/>
<path d="M145.875 44.5273C144.727 44.5273 143.727 44.2617 142.875 43.7305C142.023 43.1914 141.363 42.4453 140.895 41.4922C140.426 40.5391 140.191 39.4375 140.191 38.1875V37.6953C140.191 36.4922 140.418 35.4141 140.871 34.4609C141.324 33.5078 141.977 32.7539 142.828 32.1992C143.68 31.6445 144.695 31.3672 145.875 31.3672C146.898 31.3672 147.793 31.5352 148.559 31.8711C149.332 32.207 149.98 32.668 150.504 33.2539L150.562 36.3008H148.758L148.359 34.0859C148.094 33.8125 147.762 33.5938 147.363 33.4297C146.965 33.2656 146.496 33.1836 145.957 33.1836C145.27 33.1836 144.664 33.3867 144.141 33.793C143.625 34.1992 143.223 34.7422 142.934 35.4219C142.645 36.1016 142.5 36.8594 142.5 37.6953V38.1875C142.5 39.5781 142.801 40.6836 143.402 41.5039C144.004 42.3164 144.824 42.7227 145.863 42.7227C146.645 42.7227 147.293 42.5078 147.809 42.0781C148.324 41.6484 148.641 41.0586 148.758 40.3086H150.832L150.855 40.3789C150.816 41.1055 150.602 41.7852 150.211 42.418C149.82 43.0508 149.262 43.5625 148.535 43.9531C147.816 44.3359 146.93 44.5273 145.875 44.5273Z" fill="white"/>
<path d="M158.238 44.5273C156.863 44.5273 155.789 44.0859 155.016 43.2031C154.242 42.3203 153.855 40.9453 153.855 39.0781V33.418L152.402 33.0898V31.6016H156.164V39.1016C156.164 40.4531 156.363 41.3828 156.762 41.8906C157.16 42.3984 157.781 42.6523 158.625 42.6523C159.445 42.6523 160.121 42.4883 160.652 42.1602C161.191 41.8242 161.598 41.3516 161.871 40.7422V33.418L160.172 33.0898V31.6016H164.18V42.4766L165.633 42.8047V44.2812H162.105L161.953 42.4062C161.555 43.0859 161.039 43.6094 160.406 43.9766C159.781 44.3438 159.059 44.5273 158.238 44.5273Z" fill="white"/>
<path d="M167.145 44.2812V42.8047L169.055 42.4766V27.8164L167.145 27.4883V26H171.363V42.4766L173.273 42.8047V44.2812H167.145Z" fill="white"/>
<path d="M179.027 44.5273C177.707 44.5273 176.703 44.207 176.016 43.5664C175.328 42.918 174.984 42.0078 174.984 40.8359C174.984 39.6328 175.477 38.668 176.461 37.9414C177.445 37.207 178.812 36.8398 180.562 36.8398H182.824V35.5977C182.824 34.832 182.59 34.2383 182.121 33.8164C181.66 33.3945 181.008 33.1836 180.164 33.1836C179.633 33.1836 179.172 33.25 178.781 33.3828C178.391 33.5078 178.035 33.6836 177.715 33.9102L177.469 35.6797H175.688V32.7734C176.836 31.8359 178.34 31.3672 180.199 31.3672C181.738 31.3672 182.945 31.7344 183.82 32.4688C184.695 33.2031 185.133 34.2539 185.133 35.6211V41.7266C185.133 41.8906 185.133 42.0508 185.133 42.207C185.141 42.3633 185.152 42.5195 185.168 42.6758L186.398 42.8047V44.2812H183.082C182.949 43.6406 182.867 43.0586 182.836 42.5352C182.391 43.1055 181.832 43.582 181.16 43.9648C180.496 44.3398 179.785 44.5273 179.027 44.5273ZM179.367 42.5938C180.133 42.5938 180.832 42.4102 181.465 42.043C182.098 41.6758 182.551 41.2344 182.824 40.7188V38.4219H180.48C179.418 38.4219 178.621 38.6758 178.09 39.1836C177.559 39.6914 177.293 40.2578 177.293 40.8828C177.293 42.0234 177.984 42.5938 179.367 42.5938Z" fill="white"/>
<path d="M192.668 44.4805C191.73 44.4805 190.984 44.207 190.43 43.6602C189.883 43.1055 189.609 42.2227 189.609 41.0117V33.3125H187.605V31.6016H189.609V28.543H191.918V31.6016H194.672V33.3125H191.918V41.0117C191.918 41.6211 192.039 42.0703 192.281 42.3594C192.523 42.6484 192.848 42.793 193.254 42.793C193.527 42.793 193.832 42.7695 194.168 42.7227C194.504 42.668 194.766 42.6211 194.953 42.582L195.27 44.0938C194.934 44.1953 194.52 44.2852 194.027 44.3633C193.543 44.4414 193.09 44.4805 192.668 44.4805Z" fill="white"/>
<path d="M202.242 44.5273C201.07 44.5273 200.059 44.2539 199.207 43.707C198.363 43.1523 197.711 42.3906 197.25 41.4219C196.789 40.4453 196.559 39.332 196.559 38.082V37.8242C196.559 36.5742 196.789 35.4648 197.25 34.4961C197.711 33.5195 198.363 32.7539 199.207 32.1992C200.059 31.6445 201.062 31.3672 202.219 31.3672C203.391 31.3672 204.398 31.6445 205.242 32.1992C206.094 32.7539 206.75 33.5156 207.211 34.4844C207.672 35.4531 207.902 36.5664 207.902 37.8242V38.082C207.902 39.3398 207.672 40.457 207.211 41.4336C206.75 42.4023 206.098 43.1602 205.254 43.707C204.41 44.2539 203.406 44.5273 202.242 44.5273ZM202.242 42.7227C203.336 42.7227 204.168 42.2852 204.738 41.4102C205.309 40.5352 205.594 39.4258 205.594 38.082V37.8242C205.594 36.9336 205.465 36.1406 205.207 35.4453C204.957 34.7422 204.582 34.1914 204.082 33.793C203.582 33.3867 202.961 33.1836 202.219 33.1836C201.484 33.1836 200.867 33.3867 200.367 33.793C199.867 34.1914 199.492 34.7422 199.242 35.4453C198.992 36.1406 198.867 36.9336 198.867 37.8242V38.082C198.867 39.4258 199.148 40.5352 199.711 41.4102C200.281 42.2852 201.125 42.7227 202.242 42.7227Z" fill="white"/>
<path d="M209.66 44.2812V42.8047L211.57 42.4766V33.418L209.66 33.0898V31.6016H213.633L213.832 33.2188L213.855 33.4414C214.215 32.793 214.656 32.2852 215.18 31.918C215.711 31.5508 216.316 31.3672 216.996 31.3672C217.238 31.3672 217.484 31.3906 217.734 31.4375C217.992 31.4766 218.176 31.5156 218.285 31.5547L217.98 33.6992L216.375 33.6055C215.766 33.5664 215.254 33.707 214.84 34.0273C214.426 34.3398 214.105 34.7617 213.879 35.293V42.4766L215.789 42.8047V44.2812H209.66Z" fill="white"/>
<path d="M55 11.8672V11.0702L56.0369 10.8931V3.6382L55 3.4611V2.65781H57.7101L60.6936 9.64706H60.7318L63.62 2.65781H66.4127V3.4611L65.3758 3.6382V10.8931L66.4127 11.0702V11.8672H63.0856V11.0702L64.1798 10.8931V4.35927L64.148 4.35294L61.139 11.5383H60.3056L57.1948 4.36559L57.163 4.37192L57.2075 8.22391V10.8931L58.3271 11.0702V11.8672H55Z" fill="#20E4FE"/>
<path d="M69.7081 12C68.9913 12 68.4463 11.8271 68.0731 11.4813C67.6999 11.1314 67.5133 10.6401 67.5133 10.0076C67.5133 9.35821 67.7805 8.83744 68.3149 8.44529C68.8492 8.04891 69.5914 7.85073 70.5414 7.85073H71.7692V7.18027C71.7692 6.76703 71.642 6.44655 71.3875 6.21885C71.1373 5.99114 70.7832 5.87729 70.3251 5.87729C70.0367 5.87729 69.7865 5.91314 69.5745 5.98482C69.3624 6.05229 69.1694 6.14716 68.9956 6.26945L68.862 7.22454H67.895V5.65591C68.5184 5.14991 69.3349 4.8969 70.3442 4.8969C71.1797 4.8969 71.835 5.09509 72.31 5.49146C72.785 5.88783 73.0225 6.45499 73.0225 7.19292V10.4883C73.0225 10.5769 73.0225 10.6633 73.0225 10.7476C73.0267 10.832 73.0331 10.9163 73.0416 11.0006L73.7095 11.0702V11.8672H71.9092C71.8371 11.5214 71.7926 11.2073 71.7756 10.9247C71.5339 11.2326 71.2306 11.4898 70.8659 11.6964C70.5054 11.8988 70.1195 12 69.7081 12ZM69.8926 10.9564C70.3082 10.9564 70.6878 10.8573 71.0313 10.6591C71.3748 10.4609 71.6208 10.2226 71.7692 9.94434V8.70462H70.4969C69.9201 8.70462 69.4875 8.84166 69.1991 9.11575C68.9107 9.38984 68.7665 9.69555 68.7665 10.0329C68.7665 10.6485 69.1419 10.9564 69.8926 10.9564Z" fill="#20E4FE"/>
<path d="M77.3865 12C76.8267 12 76.3454 11.863 75.9425 11.5889C75.5438 11.3106 75.2384 10.9247 75.0264 10.4314C74.8143 9.93801 74.7083 9.36243 74.7083 8.70462V8.57179C74.7083 7.83808 74.8143 7.19502 75.0264 6.64263C75.2384 6.09024 75.5459 5.66224 75.9488 5.35863C76.3517 5.05081 76.8352 4.8969 77.3993 4.8969C77.8064 4.8969 78.1648 4.9728 78.4744 5.1246C78.7882 5.27219 79.0554 5.48724 79.2759 5.76977V2.98039L78.239 2.80329V2H80.5292V10.8931L81.5661 11.0702V11.8672H79.4413L79.3396 11.0512C78.8815 11.6837 78.2305 12 77.3865 12ZM77.7046 10.988C78.0778 10.988 78.3917 10.9036 78.6461 10.735C78.9006 10.5663 79.1105 10.3281 79.2759 10.0202V6.84503C79.1148 6.5583 78.9048 6.33059 78.6461 6.16192C78.3874 5.99325 78.0778 5.90892 77.7173 5.90892C77.1194 5.90892 76.6762 6.1556 76.3878 6.64896C76.1036 7.14232 75.9615 7.78326 75.9615 8.57179V8.70462C75.9615 9.39195 76.1036 9.94434 76.3878 10.3618C76.6719 10.7793 77.1109 10.988 77.7046 10.988Z" fill="#20E4FE"/>
<path d="M85.135 12C84.5752 12 84.0938 11.863 83.6909 11.5889C83.2922 11.3106 82.9869 10.9247 82.7748 10.4314C82.5628 9.93801 82.4568 9.36243 82.4568 8.70462V8.57179C82.4568 7.83808 82.5628 7.19502 82.7748 6.64263C82.9869 6.09024 83.2944 5.66224 83.6973 5.35863C84.1002 5.05081 84.5837 4.8969 85.1477 4.8969C85.5549 4.8969 85.9132 4.9728 86.2228 5.1246C86.5367 5.27219 86.8039 5.48724 87.0244 5.76977V2.98039L85.9875 2.80329V2H88.2776V10.8931L89.3146 11.0702V11.8672H87.1898L87.088 11.0512C86.63 11.6837 85.979 12 85.135 12ZM85.4531 10.988C85.8263 10.988 86.1401 10.9036 86.3946 10.735C86.6491 10.5663 86.859 10.3281 87.0244 10.0202V6.84503C86.8632 6.5583 86.6533 6.33059 86.3946 6.16192C86.1359 5.99325 85.8263 5.90892 85.4658 5.90892C84.8678 5.90892 84.4246 6.1556 84.1362 6.64896C83.8521 7.14232 83.71 7.78326 83.71 8.57179V8.70462C83.71 9.39195 83.8521 9.94434 84.1362 10.3618C84.4204 10.7793 84.8593 10.988 85.4531 10.988Z" fill="#20E4FE"/>
<path d="M93.2779 12C92.6417 12 92.0882 11.8566 91.6175 11.5699C91.1467 11.2789 90.782 10.8762 90.5233 10.3618C90.2688 9.84735 90.1416 9.25279 90.1416 8.57812V8.29981C90.1416 7.65043 90.2752 7.07063 90.5424 6.5604C90.8138 6.04596 91.1722 5.64116 91.6175 5.34598C92.067 5.0466 92.5569 4.8969 93.087 4.8969C94.0116 4.8969 94.7114 5.17521 95.1864 5.73182C95.6656 6.28843 95.9052 7.03057 95.9052 7.95825V8.73624H91.4394L91.4203 8.76787C91.433 9.42568 91.6005 9.96753 91.9228 10.3934C92.2452 10.8151 92.6968 11.0259 93.2779 11.0259C93.702 11.0259 94.0731 10.9669 94.3912 10.8488C94.7135 10.7265 94.9913 10.56 95.2245 10.3491L95.7144 11.1588C95.4684 11.3949 95.1418 11.5952 94.7347 11.7596C94.3318 11.9199 93.8462 12 93.2779 12ZM91.4775 7.76218H94.652V7.59772C94.652 7.10858 94.5205 6.69956 94.2576 6.37065C93.9946 6.04175 93.6044 5.87729 93.087 5.87729C92.6672 5.87729 92.3088 6.0544 92.0119 6.4086C91.715 6.75859 91.5327 7.19924 91.4648 7.73055L91.4775 7.76218Z" fill="#20E4FE"/>
<path d="M96.8849 11.8672V11.0702L97.9219 10.8931V6.0038L96.8849 5.82669V5.0234H99.0415L99.1306 6.04175C99.3596 5.67911 99.6458 5.39869 99.9894 5.20051C100.337 4.9981 100.732 4.8969 101.173 4.8969C101.915 4.8969 102.489 5.11406 102.897 5.54839C103.304 5.97849 103.507 6.64474 103.507 7.54712V10.8931L104.544 11.0702V11.8672H101.217V11.0702L102.254 10.8931V7.57242C102.254 6.96943 102.133 6.54143 101.892 6.28843C101.654 6.03542 101.289 5.90892 100.797 5.90892C100.437 5.90892 100.117 5.99536 99.8367 6.16825C99.561 6.34113 99.3405 6.57727 99.1751 6.87666V10.8931L100.212 11.0702V11.8672H96.8849Z" fill="#20E4FE"/>
<path d="M105.562 11.8672V11.0702L106.599 10.8931V3.6382L105.562 3.4611V2.65781H108.272L111.256 9.64706H111.294L114.182 2.65781H116.975V3.4611L115.938 3.6382V10.8931L116.975 11.0702V11.8672H113.648V11.0702L114.742 10.8931V4.35927L114.71 4.35294L111.701 11.5383H110.868L107.757 4.36559L107.725 4.37192L107.77 8.22391V10.8931L108.889 11.0702V11.8672H105.562Z" fill="#20E4FE"/>
<path d="M121.154 12C120.518 12 119.969 11.8524 119.507 11.5572C119.049 11.2579 118.695 10.8467 118.444 10.3238C118.194 9.79675 118.069 9.19587 118.069 8.52119V8.38204C118.069 7.70736 118.194 7.10858 118.444 6.58571C118.695 6.05861 119.049 5.64537 119.507 5.34598C119.969 5.0466 120.514 4.8969 121.142 4.8969C121.778 4.8969 122.325 5.0466 122.783 5.34598C123.245 5.64537 123.602 6.0565 123.852 6.57938C124.102 7.10226 124.227 7.70314 124.227 8.38204V8.52119C124.227 9.20008 124.102 9.80308 123.852 10.3302C123.602 10.853 123.247 11.2621 122.789 11.5572C122.331 11.8524 121.786 12 121.154 12ZM121.154 11.0259C121.748 11.0259 122.2 10.7898 122.51 10.3175C122.819 9.84525 122.974 9.24647 122.974 8.52119V8.38204C122.974 7.90133 122.904 7.47333 122.764 7.09804C122.628 6.71853 122.425 6.42125 122.153 6.2062C121.882 5.98693 121.545 5.87729 121.142 5.87729C120.743 5.87729 120.408 5.98693 120.137 6.2062C119.865 6.42125 119.662 6.71853 119.526 7.09804C119.39 7.47333 119.322 7.90133 119.322 8.38204V8.52119C119.322 9.24647 119.475 9.84525 119.78 10.3175C120.09 10.7898 120.548 11.0259 121.154 11.0259Z" fill="#20E4FE"/>
<path d="M128.852 12C127.966 12 127.3 11.6627 126.854 10.988L126.74 11.8672H125.659V2.98039L124.622 2.80329V2H126.912V5.83302C127.128 5.52941 127.395 5.29749 127.713 5.13725C128.036 4.97702 128.411 4.8969 128.839 4.8969C129.408 4.8969 129.891 5.05081 130.29 5.35863C130.693 5.66224 131 6.09024 131.212 6.64263C131.429 7.19502 131.537 7.83808 131.537 8.57179V8.70462C131.537 9.36243 131.429 9.93801 131.212 10.4314C131 10.9247 130.693 11.3106 130.29 11.5889C129.891 11.863 129.412 12 128.852 12ZM128.534 10.988C129.123 10.988 129.56 10.7793 129.844 10.3618C130.133 9.94434 130.277 9.39195 130.277 8.70462V8.57179C130.277 7.78326 130.133 7.14232 129.844 6.64896C129.556 6.1556 129.115 5.90892 128.521 5.90892C128.135 5.90892 127.809 6.00169 127.542 6.18722C127.279 6.37276 127.069 6.62155 126.912 6.93359V9.95699C127.069 10.2732 127.281 10.5241 127.548 10.7097C127.819 10.8952 128.148 10.988 128.534 10.988Z" fill="#20E4FE"/>
<path d="M132.44 11.8672V11.0702L133.477 10.8931V6.0038L132.44 5.82669V5.0234H134.73V10.8931L135.767 11.0702V11.8672H132.44ZM133.413 3.3346V2H134.73V3.3346H133.413Z" fill="#20E4FE"/>
<path d="M136.569 11.8672V11.0702L137.606 10.8931V2.98039L136.569 2.80329V2H138.859V10.8931L139.896 11.0702V11.8672H136.569Z" fill="#20E4FE"/>
<path d="M143.802 12C143.166 12 142.612 11.8566 142.141 11.5699C141.671 11.2789 141.306 10.8762 141.047 10.3618C140.793 9.84735 140.666 9.25279 140.666 8.57812V8.29981C140.666 7.65043 140.799 7.07063 141.066 6.5604C141.338 6.04596 141.696 5.64116 142.141 5.34598C142.591 5.0466 143.081 4.8969 143.611 4.8969C144.536 4.8969 145.235 5.17521 145.71 5.73182C146.19 6.28843 146.429 7.03057 146.429 7.95825V8.73624H141.963L141.944 8.76787C141.957 9.42568 142.125 9.96753 142.447 10.3934C142.769 10.8151 143.221 11.0259 143.802 11.0259C144.226 11.0259 144.597 10.9669 144.915 10.8488C145.237 10.7265 145.515 10.56 145.749 10.3491L146.238 11.1588C145.992 11.3949 145.666 11.5952 145.259 11.7596C144.856 11.9199 144.37 12 143.802 12ZM142.002 7.76218H145.176V7.59772C145.176 7.10858 145.044 6.69956 144.782 6.37065C144.519 6.04175 144.128 5.87729 143.611 5.87729C143.191 5.87729 142.833 6.0544 142.536 6.4086C142.239 6.75859 142.057 7.19924 141.989 7.73055L142.002 7.76218Z" fill="#20E4FE"/>
<path d="M150.8 11.8672V11.0133L153.834 7.66097C154.195 7.26038 154.477 6.91883 154.68 6.63631C154.884 6.34957 155.026 6.09024 155.106 5.85832C155.187 5.6264 155.227 5.38604 155.227 5.13725C155.227 4.67763 155.087 4.2918 154.807 3.97976C154.528 3.6635 154.127 3.50538 153.605 3.50538C153.062 3.50538 152.638 3.66772 152.333 3.99241C152.032 4.3171 151.881 4.77672 151.881 5.37128H150.679L150.666 5.33333C150.653 4.80202 150.766 4.32553 151.003 3.90386C151.241 3.47797 151.584 3.14274 152.034 2.89817C152.488 2.64938 153.026 2.52498 153.65 2.52498C154.235 2.52498 154.737 2.63673 155.157 2.86022C155.581 3.07949 155.908 3.38098 156.137 3.76471C156.366 4.14843 156.481 4.58908 156.481 5.08665C156.481 5.59266 156.33 6.09656 156.029 6.59836C155.732 7.10015 155.312 7.642 154.769 8.22391L152.333 10.8615L152.346 10.8931H155.634L155.736 9.83681H156.799V11.8672H150.8Z" fill="#20E4FE"/>
<path d="M158.001 11.8672V11.0133L161.035 7.66097C161.396 7.26038 161.678 6.91883 161.882 6.63631C162.085 6.34957 162.227 6.09024 162.308 5.85832C162.388 5.6264 162.429 5.38604 162.429 5.13725C162.429 4.67763 162.289 4.2918 162.009 3.97976C161.729 3.6635 161.328 3.50538 160.806 3.50538C160.264 3.50538 159.839 3.66772 159.534 3.99241C159.233 4.3171 159.082 4.77672 159.082 5.37128H157.88L157.867 5.33333C157.855 4.80202 157.967 4.32553 158.205 3.90386C158.442 3.47797 158.786 3.14274 159.235 2.89817C159.689 2.64938 160.228 2.52498 160.851 2.52498C161.436 2.52498 161.939 2.63673 162.359 2.86022C162.783 3.07949 163.109 3.38098 163.338 3.76471C163.567 4.14843 163.682 4.58908 163.682 5.08665C163.682 5.59266 163.531 6.09656 163.23 6.59836C162.933 7.10015 162.513 7.642 161.971 8.22391L159.534 10.8615L159.547 10.8931H162.836L162.938 9.83681H164V11.8672H158.001Z" fill="#20E4FE"/>
</g>
<defs>
<clipPath id="clip0_17:50">
<rect width="219" height="47" fill="white"/>
</clipPath>
</defs>
</svg>
